<?xml version="1.0" encoding="iso-8859-1"?>
<!-- Generator: Adobe Illustrator 19.0.0, SVG Export Plug-In . SVG Version: 6.00 Build 0)  -->
<svg version="1.1" id="Layer_1" xmlns="http://www.w3.org/2000/svg" xmlns:xlink="http://www.w3.org/1999/xlink" x="0px" y="0px"
	 viewBox="0 0 512 512" style="enable-background:new 0 0 512 512;" xml:space="preserve">
<path d="M256,241.563c7.969,0,14.437,6.467,14.437,14.437c0,7.969-6.467,14.437-14.437,14.437
	c-7.982,0-14.437-6.467-14.437-14.437C241.563,248.031,248.018,241.563,256,241.563z"/>
<path style="fill:#E3F100;" d="M256,9.31c136.236,0,246.69,110.441,246.69,246.69S392.236,502.69,256,502.69
	C119.751,502.69,9.31,392.249,9.31,256S119.751,9.31,256,9.31z M467.908,256c0-117.033-94.875-211.908-211.908-211.908
	S44.092,138.967,44.092,256S138.967,467.908,256,467.908S467.908,373.033,467.908,256z"/>
<g>
	<path  d="M283.21,305.628l59.559,105.526C317.148,425.653,287.53,433.92,256,433.92
		c-32.163,0-62.302-8.59-88.284-23.623l60.589-104.942c8.143,4.717,17.602,7.423,27.694,7.423
		C265.881,312.779,275.166,310.184,283.21,305.628z"/>
	<path  d="M432.505,257.403H311.363c0-20.296-10.911-38.034-27.222-47.667l61.607-104.346
		C397.686,136.112,432.505,192.692,432.505,257.403z"/>
	<path  d="M166.239,105.389l61.607,104.346c-16.299,9.633-27.222,27.371-27.222,47.667H79.483
		C79.483,192.692,114.314,136.112,166.239,105.389z"/>
</g>
<path style="fill:#E3F100;" d="M256,44.092c117.033,0,211.908,94.875,211.908,211.908S373.033,467.908,256,467.908
	S44.092,373.033,44.092,256S138.967,44.092,256,44.092z M311.363,257.403h121.142c0-64.711-34.819-121.291-86.757-152.014
	l-61.607,104.346C300.452,219.368,311.363,237.107,311.363,257.403z M342.769,411.154L283.21,305.628
	c-8.044,4.556-17.329,7.15-27.21,7.15c-10.092,0-19.551-2.706-27.694-7.423l-60.589,104.942
	C193.698,425.33,223.837,433.92,256,433.92C287.53,433.92,317.148,425.653,342.769,411.154z M270.437,256
	c0-7.969-6.467-14.437-14.437-14.437c-7.982,0-14.437,6.467-14.437,14.437c0,7.969,6.455,14.437,14.437,14.437
	C263.969,270.437,270.437,263.969,270.437,256z M227.847,209.736l-61.607-104.346c-51.925,30.723-86.757,87.303-86.757,152.014
	h121.142C200.624,237.107,211.548,219.368,227.847,209.736z"/>
<g>
	<path style="fill:#000000;" d="M200.624,266.713H79.483c-5.142,0-9.31-4.168-9.31-9.31c0-32.877,8.704-65.187,25.173-93.44
		c15.975-27.406,38.85-50.43,66.153-66.585c2.128-1.259,4.669-1.619,7.059-1.004c2.393,0.614,4.443,2.156,5.699,4.284
		l61.607,104.346c2.613,4.425,1.145,10.133-3.281,12.748c-13.97,8.257-22.649,23.451-22.649,39.652
		C209.934,262.544,205.766,266.713,200.624,266.713z M89.051,248.093h102.946c2.368-16.085,10.787-30.825,23.448-41.052
		l-52.351-88.67c-21.103,14.134-38.848,32.985-51.661,54.967C98.177,196.078,90.515,221.745,89.051,248.093z"/>
	<path style="fill:#000000;" d="M432.505,266.713H311.363c-5.143,0-9.31-4.168-9.31-9.31c0-16.208-8.677-31.401-22.647-39.651
		c-4.425-2.614-5.896-8.323-3.282-12.75l61.607-104.346c1.256-2.128,3.306-3.668,5.699-4.284c2.392-0.614,4.932-0.254,7.058,1.004
		c27.307,16.153,50.185,39.179,66.159,66.586c16.466,28.25,25.168,60.561,25.168,93.44
		C441.815,262.544,437.648,266.713,432.505,266.713z M319.991,248.093h102.947c-1.465-26.35-9.126-52.017-22.378-74.754
		c-12.812-21.983-30.56-40.835-51.664-54.969l-52.351,88.668C309.205,217.263,317.623,232.003,319.991,248.093z"/>
	<path style="fill:#000000;" d="M256,443.23c-32.682,0-64.821-8.601-92.946-24.875c-4.448-2.573-5.97-8.264-3.4-12.714
		l60.589-104.942c1.236-2.14,3.272-3.702,5.659-4.34c2.388-0.639,4.931-0.3,7.069,0.938c6.968,4.036,14.931,6.169,23.028,6.169
		c7.937,0,15.759-2.054,22.622-5.941c2.152-1.218,4.703-1.531,7.078-0.87c2.382,0.662,4.403,2.242,5.617,4.394l59.559,105.526
		c2.525,4.474,0.95,10.149-3.523,12.679C319.639,434.941,288.049,443.23,256,443.23z M180.562,406.67
		c23.263,11.762,49.153,17.941,75.438,17.941c25.715,0,51.096-5.926,73.961-17.209l-50.612-89.673
		c-7.411,2.867-15.34,4.36-23.349,4.36c-8.231,0-16.369-1.573-23.952-4.594L180.562,406.67z"/>
	<path style="fill:#000000;" d="M256,512C114.841,512,0,397.159,0,256S114.841,0,256,0s256,114.841,256,256S397.159,512,256,512z
		 M256,18.62C125.108,18.62,18.62,125.108,18.62,256S125.108,493.38,256,493.38S493.38,386.892,493.38,256S386.892,18.62,256,18.62z
		"/>
	<path style="fill:#000000;" d="M256,477.218C134.02,477.218,34.782,377.98,34.782,256S134.02,34.782,256,34.782
		c121.981,0,221.218,99.238,221.218,221.218S377.981,477.218,256,477.218z M256,53.402C144.288,53.402,53.402,144.288,53.402,256
		S144.288,458.598,256,458.598S458.598,367.712,458.598,256S367.712,53.402,256,53.402z"/>
	<path style="fill:#000000;" d="M256,279.747c-13.094,0-23.747-10.653-23.747-23.747c0-13.094,10.653-23.747,23.747-23.747
		c13.094,0,23.747,10.653,23.747,23.747C279.747,269.094,269.094,279.747,256,279.747z M256,250.873c-2.827,0-5.127,2.3-5.127,5.127
		c0,2.827,2.3,5.127,5.127,5.127c2.827,0,5.127-2.3,5.127-5.127C261.127,253.173,258.827,250.873,256,250.873z"/>
</g>
<g>
</g>
<g>
</g>
<g>
</g>
<g>
</g>
<g>
</g>
<g>
</g>
<g>
</g>
<g>
</g>
<g>
</g>
<g>
</g>
<g>
</g>
<g>
</g>
<g>
</g>
<g>
</g>
<g>
</g>
</svg>
