<svg width="512" height="512" xmlns="http://www.w3.org/2000/svg" xml:space="preserve" version="1.1">

 <g>
  <title>Layer 1</title>
  <g id="svg_1">
   <g id="svg_2">
    <path fill="#E3F100" id="svg_3" d="m256,0c-141.158,0 -256,114.842 -256,256c0,140.762 114.442,256 256,256c141.158,0 256,-114.842 256,-256c0,-140.684 -114.365,-256 -256,-256zm-222.609,256c0,-122.746 99.862,-222.609 222.609,-222.609c55.377,0 106.091,20.331 145.084,53.912l-99.014,99.014c-13.571,-9.051 -29.506,-13.915 -46.189,-13.915c-3.485,0 -6.931,0.237 -10.336,0.654l8.13,-24.388c2,-5.999 0.439,-12.614 -4.034,-17.085l-47.223,-47.222c-8.766,-8.77 -23.725,-5.23 -27.645,6.526l-15.068,45.206l-4.51,-4.51c-6.519,-6.52 -17.091,-6.52 -23.611,0c-6.52,6.52 -6.52,17.091 0,23.611l4.51,4.51l-45.206,15.068c-11.77,3.922 -15.283,18.886 -6.526,27.644l47.222,47.222c4.48,4.48 11.094,6.029 17.085,4.034l24.434,-8.144c-2.412,19.458 1.987,39.604 13.23,56.526l-99.029,99.029c-33.582,-38.991 -53.913,-89.706 -53.913,-145.083zm250.235,98.46l-51.237,-51.237l70.834,-70.834l51.238,51.237l-70.835,70.834zm92.435,-45.214c8.732,18.243 5.911,41.312 -9.796,57.019c-15.705,15.704 -38.773,18.53 -57.019,9.796l66.815,-66.815zm-155.597,-88.782c9.46,-9.46 22.038,-14.67 35.417,-14.67c7.662,0 15.058,1.716 21.759,4.953l-66.893,66.893c-3.238,-6.702 -4.954,-14.098 -4.954,-21.76c0.001,-13.377 5.211,-25.955 14.671,-35.416zm-34.36,-57.972l11.805,-35.417l20.824,20.824l-11.805,35.417l-20.824,-20.824zm-2.788,44.436l-35.416,11.806l-20.824,-20.824l35.416,-11.805l20.824,20.823zm72.684,271.681c-55.377,0 -106.092,-20.331 -145.084,-53.914l97.862,-97.862c0.003,0.003 63.064,63.063 63.064,63.063c32.618,32.598 85.407,32.608 118.035,-0.02c32.623,-32.622 32.629,-85.428 0,-118.056l-63.043,-63.043l97.862,-97.862c33.582,38.993 53.912,89.708 53.912,145.085c0.001,122.746 -99.862,222.609 -222.608,222.609z"/>
   </g>
  </g>
  <g id="svg_4"/>
  <g id="svg_5"/>
  <g id="svg_6"/>
  <g id="svg_7"/>
  <g id="svg_8"/>
  <g id="svg_9"/>
  <g id="svg_10"/>
  <g id="svg_11"/>
  <g id="svg_12"/>
  <g id="svg_13"/>
  <g id="svg_14"/>
  <g id="svg_15"/>
  <g id="svg_16"/>
  <g id="svg_17"/>
  <g id="svg_18"/>
 </g>
</svg>